<?xml version="1.0" encoding="utf-8"?>
<!-- Generator: Adobe Illustrator 30.1.0, SVG Export Plug-In . SVG Version: 9.03 Build 0)  -->
<svg version="1.0" id="Layer_1" xmlns:xodm="http://www.corel.com/coreldraw/odm/2003"
	 xmlns="http://www.w3.org/2000/svg" xmlns:xlink="http://www.w3.org/1999/xlink" x="0px" y="0px" viewBox="0 0 113.99 19.66"
	 style="enable-background:new 0 0 113.99 19.66;" xml:space="preserve">
<style type="text/css">
	.st0{fill:#231F20;}
</style>
<g>
	<path class="st0" d="M25.55,8.5c-0.02,0-0.03,0.02-0.03,0.03v2.41c0,0.02,0.02,0.04,0.03,0.04h3.68c0.02,0,0.04-0.02,0.04-0.04
		V8.53c0-0.02-0.02-0.03-0.04-0.03H25.55z M25.84,12.13c-0.93,0-1.69-0.63-1.69-1.4V8.75c0-0.77,0.76-1.4,1.69-1.4h3.12
		c0.93,0,1.69,0.63,1.69,1.4v1.99c0,0.77-0.76,1.4-1.69,1.4L25.84,12.13L25.84,12.13z"/>
	<path class="st0" d="M15.96,12.13h-3.88c-0.93,0-1.69-0.63-1.69-1.4V8.75c0-0.77,0.76-1.4,1.69-1.4h3.86h0.03
		c0.06,0,0.11,0.05,0.11,0.11l0,0v0.93c0,0.06-0.05,0.11-0.11,0.11h-0.01h-4.17c-0.02,0-0.04,0.02-0.04,0.04v2.4
		c0,0.02,0.02,0.04,0.04,0.04h4.16h0.01c0.06,0,0.11,0.05,0.11,0.11l0,0v0.93l0,0C16.07,12.08,16.02,12.13,15.96,12.13L15.96,12.13
		L15.96,12.13z"/>
	<path class="st0" d="M22.91,12.13h-3.88c-0.93,0-1.69-0.63-1.69-1.4V8.75c0-0.77,0.76-1.4,1.69-1.4h3.86h0.03
		c0.06,0,0.11,0.05,0.11,0.11l0,0v0.93c0,0.06-0.05,0.11-0.11,0.11h-0.01h-4.17c-0.02,0-0.04,0.02-0.04,0.04v2.4
		c0,0.02,0.02,0.04,0.04,0.04h4.16h0.01c0.06,0,0.11,0.05,0.11,0.11l0,0v0.93l0,0C23.02,12.08,22.98,12.13,22.91,12.13L22.91,12.13
		L22.91,12.13z"/>
	<path class="st0" d="M12.51,9.21h3.47c0.04,0,0.06,0.03,0.06,0.06v0.93c0,0.03-0.03,0.06-0.06,0.06h-3.47
		c-0.03,0-0.06-0.03-0.06-0.06V9.28C12.44,9.24,12.47,9.21,12.51,9.21z"/>
	<path class="st0" d="M5.98,12.31c-0.54,0-1.02-0.24-1.27-0.64L4.7,11.65L2.28,7.49c-0.02-0.03-0.02-0.06,0-0.09s0.06-0.05,0.1-0.05
		h1.28c0.04,0,0.08,0.02,0.1,0.05l2.19,3.74c0,0.01,0.02,0.02,0.05,0.02c0.04,0,0.05-0.02,0.05-0.02L8.41,7.4
		C8.43,7.37,8.46,7.35,8.5,7.35h1.3c0.04,0,0.08,0.02,0.1,0.05s0.02,0.06,0,0.09l-2.63,4.16C7.03,12.05,6.54,12.3,6,12.3
		C5.99,12.31,5.98,12.31,5.98,12.31z"/>
	<path class="st0" d="M0.11,7.35h1.16c0.06,0,0.11,0.05,0.11,0.11v4.57c0,0.06-0.05,0.11-0.11,0.11H0.11C0.05,12.13,0,12.08,0,12.02
		V7.46C0,7.4,0.05,7.35,0.11,7.35z"/>
</g>
<g transform="matrix(0.725048,0,0,0.725048,102.13,24.1439)">
	<path d="M-82.51-22.67v6.11c0,0.08,0.06,0.14,0.14,0.14h6.08c1.56,0,2.41-0.91,2.41-2.19v-2.02c0-1.28-0.84-2.19-2.41-2.19h-6.08
		C-82.46-22.82-82.51-22.75-82.51-22.67z M-80.61-21.27h4.81c0.05,0,0.07,0.02,0.07,0.07v3.18c0,0.04-0.02,0.07-0.06,0.07h-4.82
		c-0.04,0-0.06-0.02-0.06-0.05v-3.21C-80.67-21.25-80.65-21.27-80.61-21.27z"/>
	<path d="M-64.89-22.82h-1.46c-0.09,0-0.14,0.07-0.14,0.14v4.33c0,0.09-0.07,0.12-0.13,0.05l-3.19-3.75c-0.4-0.46-0.93-1-1.67-1
		c-0.98,0-1.36,0.73-1.36,1.65v4.83c0,0.08,0.06,0.14,0.14,0.14h1.46c0.09,0,0.14-0.07,0.14-0.14v-4.33c0-0.09,0.07-0.12,0.13-0.05
		l3.19,3.75c0.4,0.46,0.91,1,1.73,1c0.87,0,1.3-0.69,1.3-1.61v-4.87C-64.75-22.75-64.82-22.82-64.89-22.82z"/>
	<path d="M-61.83-16.56v-6.11c0-0.08-0.07-0.14-0.15-0.14h-1.55c-0.09,0-0.14,0.07-0.14,0.14v6.11c0,0.08,0.06,0.14,0.14,0.14h1.55
		C-61.9-16.42-61.83-16.48-61.83-16.56z"/>
	<path d="M-60.73-22.73v6.1c0,0.14,0.06,0.21,0.14,0.21h1.55c0.09,0,0.15-0.07,0.15-0.14v-1.52c0-0.03,0.02-0.06,0.05-0.06h4.28
		c1.24,0,2.06-0.7,2.06-1.81V-21c0-1.13-0.82-1.82-2.06-1.82h-6.03C-60.67-22.82-60.73-22.75-60.73-22.73z M-58.88-19.66v-1.62
		c0-0.03,0.02-0.06,0.05-0.06h4.44c0.03,0,0.05,0.03,0.05,0.06v1.62c0,0.03-0.02,0.05-0.05,0.05h-4.44
		C-58.86-19.61-58.88-19.63-58.88-19.66z"/>
	<path d="M-51.5-22.73v6.1c0,0.14,0.06,0.21,0.14,0.21h1.55c0.09,0,0.15-0.07,0.15-0.14v-1.65c0-0.03,0.02-0.06,0.05-0.06h2.33
		c0.13,0,0.17,0.05,0.24,0.12l1.48,1.63c0.05,0.06,0.09,0.09,0.17,0.09h1.72c0.09,0,0.15-0.07,0.15-0.13c0-0.04-0.02-0.07-0.06-0.1
		l-1.48-1.51c-0.01-0.01-0.02-0.03-0.02-0.06c0-0.03,0.05-0.06,0.09-0.06c1.14-0.1,1.78-0.82,1.78-1.8V-21
		c0-1.13-0.82-1.82-2.07-1.82h-6.1C-51.44-22.82-51.5-22.75-51.5-22.73z M-45.04-21.29v1.5c0,0.03-0.02,0.05-0.05,0.05h-4.51
		c-0.03,0-0.05-0.02-0.05-0.05v-1.5c0-0.03,0.02-0.05,0.05-0.05h4.51C-45.06-21.34-45.04-21.32-45.04-21.29z"/>
	<path d="M-42.22-20.63v2.02c0,1.28,0.85,2.19,2.43,2.19h3.91c1.57,0,2.43-0.91,2.43-2.19v-2.02c0-1.28-0.85-2.19-2.43-2.19h-3.91
		C-41.37-22.82-42.22-21.91-42.22-20.63z M-35.31-21.22v3.21c0,0.03-0.02,0.05-0.05,0.05h-4.97c-0.03,0-0.05-0.02-0.05-0.05v-3.21
		c0-0.03,0.02-0.05,0.05-0.05h4.97C-35.33-21.27-35.31-21.25-35.31-21.22z"/>
	<path d="M-22.5-16.56v-4.66c0-0.92-0.57-1.82-1.64-1.82c-0.8,0-1.28,0.54-1.68,1.34l-1.55,3.18c-0.07,0.13-0.12,0.12-0.18,0
		l-1.55-3.18c-0.39-0.8-0.88-1.34-1.66-1.34c-1.08,0-1.66,0.9-1.66,1.82v4.66c0,0.08,0.06,0.14,0.14,0.14h1.46
		c0.08,0,0.14-0.07,0.14-0.14v-4.11c0-0.09,0.05-0.19,0.13-0.03l1.83,3.52c0.27,0.51,0.65,1,1.25,1c0.6,0,0.99-0.48,1.25-1
		l1.82-3.52c0.07-0.13,0.13-0.07,0.13,0.03v4.11c0,0.08,0.06,0.14,0.14,0.14h1.46C-22.56-16.42-22.5-16.48-22.5-16.56z"/>
	<path d="M-21.45-20.63v2.02c0,1.28,0.85,2.19,2.43,2.19h3.91c1.57,0,2.43-0.91,2.43-2.19v-2.02c0-1.28-0.85-2.19-2.43-2.19h-3.91
		C-20.6-22.82-21.45-21.91-21.45-20.63z M-14.54-21.22v3.21c0,0.03-0.02,0.05-0.05,0.05h-4.97c-0.03,0-0.05-0.02-0.05-0.05v-3.21
		c0-0.03,0.02-0.05,0.05-0.05h4.97C-14.56-21.27-14.54-21.25-14.54-21.22z"/>
	<path d="M-8.54-16.42h1.55c0.08,0,0.14-0.06,0.14-0.14v-4.66c0-0.03,0.02-0.05,0.05-0.05h3.06c0.09,0,0.14-0.06,0.14-0.14v-1.25
		c0-0.09-0.06-0.14-0.14-0.14h-8.07c-0.08,0-0.14,0.05-0.14,0.14v1.25c0,0.09,0.07,0.14,0.14,0.14h3.06c0.03,0,0.05,0.02,0.05,0.05
		v4.66C-8.69-16.48-8.62-16.42-8.54-16.42z"/>
	<path d="M-2.84-20.63v2.02c0,1.28,0.85,2.19,2.43,2.19h3.91c1.57,0,2.43-0.91,2.43-2.19v-2.02c0-1.28-0.85-2.19-2.43-2.19h-3.91
		C-1.99-22.82-2.84-21.91-2.84-20.63z M4.07-21.22v3.21c0,0.03-0.02,0.05-0.05,0.05h-4.97c-0.03,0-0.05-0.02-0.05-0.05v-3.21
		c0-0.03,0.02-0.05,0.05-0.05h4.97C4.05-21.27,4.07-21.25,4.07-21.22z"/>
	<path d="M6.99-22.73v6.1c0,0.14,0.06,0.21,0.14,0.21h1.55c0.09,0,0.15-0.07,0.15-0.14v-1.65c0-0.03,0.02-0.06,0.05-0.06h2.33
		c0.13,0,0.17,0.05,0.24,0.12l1.48,1.63c0.05,0.06,0.09,0.09,0.17,0.09h1.72c0.09,0,0.15-0.07,0.15-0.13c0-0.04-0.02-0.07-0.06-0.1
		l-1.48-1.51c-0.01-0.01-0.02-0.03-0.02-0.06c0-0.03,0.05-0.06,0.09-0.06c1.14-0.1,1.78-0.82,1.78-1.8V-21
		c0-1.13-0.82-1.82-2.07-1.82H7.13C7.05-22.82,6.99-22.75,6.99-22.73z M13.44-21.29v1.5c0,0.03-0.02,0.05-0.05,0.05H8.88
		c-0.03,0-0.05-0.02-0.05-0.05v-1.5c0-0.03,0.02-0.05,0.05-0.05h4.51C13.42-21.34,13.44-21.32,13.44-21.29z"/>
</g>
</svg>
