<svg width="80" height="80" viewBox="0 0 80 80" fill="none" xmlns="http://www.w3.org/2000/svg">
<g clip-path="url(#clip0_895_580)">
<path d="M57.2207 25.3732L46.6875 35.9064L50.7658 39.9847L61.299 29.4515L57.2207 25.3732Z" fill="#F13C6E"/>
<path d="M35.9091 46.7065L25.376 57.2397L29.4543 61.318L39.9874 50.7848L35.9091 46.7065Z" fill="#F13C6E"/>
<path d="M50.5175 18.706L39.9844 29.2392L44.0627 33.3175L54.5958 22.7843L50.5175 18.706Z" fill="#F13C6E"/>
<path d="M29.2353 40.0105L18.7021 50.5437L22.7804 54.622L33.3136 44.0888L29.2353 40.0105Z" fill="#F13C6E"/>
<path d="M22.758 25.3729L18.6797 29.4512L29.2128 39.9844L33.2911 35.9061L22.758 25.3729Z" fill="#F13C6E"/>
<path d="M29.4543 18.699L25.376 22.7773L35.9091 33.3104L39.9874 29.2321L29.4543 18.699Z" fill="#F13C6E"/>
<path d="M50.759 39.9809L46.6807 44.0592L57.2138 54.5924L61.2921 50.5141L50.759 39.9809Z" fill="#F13C6E"/>
<path d="M44.092 46.6841L40.0137 50.7624L50.5468 61.2955L54.6251 57.2172L44.092 46.6841Z" fill="#F13C6E"/>
<path d="M54.6062 65.3942L50.5398 61.3278L40.0003 71.8672L29.4609 61.3278L25.3945 65.3942L40.0003 80L54.6062 65.3942Z" fill="#EFEFEF"/>
<path d="M18.6722 29.4606L14.6058 25.3942L0 40L14.6058 54.6058L18.6722 50.5394L8.13278 40L18.6722 29.4606Z" fill="#EFEFEF"/>
<path d="M65.3945 25.3942L61.3281 29.4606L71.8675 40L61.3281 50.5394L65.3945 54.6058L80.0003 40L65.3945 25.3942Z" fill="#EFEFEF"/>
<path d="M50.5398 18.6722L54.6062 14.6058L40.0003 0L25.3945 14.6058L29.4609 18.6722L40.0003 8.13278L50.5398 18.6722Z" fill="#EFEFEF"/>
</g>
<defs>
<clipPath id="clip0_895_580">
<rect width="80" height="80" fill="white"/>
</clipPath>
</defs>
</svg>
